<svg width="100" height="100" viewBox="0 0 100 100" fill="none" xmlns="http://www.w3.org/2000/svg">
<path d="M90 0H10C4.47715 0 0 4.47715 0 10V90C0 95.5229 4.47715 100 10 100H90C95.5229 100 100 95.5229 100 90V10C100 4.47715 95.5229 0 90 0Z" fill="white"/>
<path d="M83.8229 62.6979C83.7337 62.5709 83.6154 62.4673 83.478 62.3958C83.3406 62.3243 83.1881 62.287 83.0333 62.2869H79.1016C78.3217 60.2212 75.5495 54.3011 69.3136 53.8979C68.5698 52.2128 65.9916 48.0497 58.6483 48.0497C47.9566 48.0497 44.9472 59.114 44.3046 62.2869H32.4914C32.1008 59.8621 31.2365 52.1914 34.9613 47.5404C36.9826 45.0159 40.1093 43.7358 44.2537 43.7358C48.2112 43.7358 51.3824 44.535 53.6769 46.1108C53.8886 46.2562 54.149 46.3112 54.4011 46.2638C54.6531 46.2163 54.876 46.0703 55.0208 45.8578C55.1656 45.6453 55.2204 45.3838 55.1731 45.1307C55.1259 44.8777 54.9804 44.6539 54.7688 44.5085C52.1461 42.7075 48.6082 41.7944 44.2537 41.7944C39.4918 41.7944 35.8566 43.3203 33.4499 46.3296L33.4473 46.3328C31.8424 46.1885 27.326 46.1128 23.8307 49.2812C20.8187 52.0122 19.4014 56.3849 19.6057 62.2869H16.9676C16.8184 62.2867 16.6712 62.3212 16.5375 62.3876C16.4039 62.454 16.2873 62.5507 16.197 62.6699C16.1068 62.7891 16.0452 62.9277 16.0172 63.0748C15.9892 63.2219 15.9955 63.3735 16.0356 63.5178C16.1026 63.7585 17.7075 69.5039 21.1404 76.9332C24.1078 83.3587 30.6003 84 33.0709 84C33.5311 84 33.8521 83.978 33.9842 83.9663H67.3497C75.8125 83.9663 79.0462 77.3311 79.1803 77.0483C79.1944 77.0186 79.2067 76.9882 79.2183 76.9577L83.9447 63.5825C84.0491 63.2848 84.004 62.9548 83.8229 62.6979V62.6979ZM77.0326 62.2869H60.0747C61.0815 60.0976 63.6835 55.8154 68.6381 55.8154C73.6507 55.8154 76.1064 60.1054 77.0314 62.2869H77.0326ZM58.6477 49.9911C63.971 49.9911 66.2662 52.4678 67.1743 53.9756C61.3799 54.7904 58.734 60.3177 57.9677 62.2869H46.2756C46.975 59.0945 49.7484 49.9911 58.6477 49.9911ZM25.112 50.7353C27.4427 48.6127 30.4263 48.2393 32.2007 48.2309C29.5194 53.2269 30.124 59.6614 30.5281 62.2869H21.5406C21.344 56.9596 22.5422 53.0748 25.1127 50.7353H25.112ZM77.4155 76.2524C77.1622 76.7481 74.2985 82.0249 67.3503 82.0249H33.941C33.9056 82.0249 33.8682 82.0262 33.8334 82.0307C33.513 82.0631 25.9886 82.8138 22.8935 76.1158C21.7251 73.5819 20.6578 71.0023 19.694 68.383H67.8866C68.143 68.383 68.3889 68.2808 68.5702 68.0987C68.7515 67.9167 68.8534 67.6698 68.8534 67.4123C68.8534 67.1549 68.7515 66.908 68.5702 66.7259C68.3889 66.5439 68.143 66.4416 67.8866 66.4416H19.0018C18.7478 65.7073 18.5039 64.9694 18.2702 64.2284H81.665L80.8825 66.4416H77.7171C77.4607 66.4416 77.2148 66.5439 77.0335 66.7259C76.8522 66.908 76.7503 67.1549 76.7503 67.4123C76.7503 67.6698 76.8522 67.9167 77.0335 68.0987C77.2148 68.2808 77.4607 68.383 77.7171 68.383H80.1967L77.4155 76.2524ZM42.9569 35.5144C43.5679 35.9221 44.1461 36.3078 44.1461 36.6172C44.1461 36.8746 44.2479 37.1215 44.4292 37.3036C44.6106 37.4856 44.8565 37.5879 45.1129 37.5879C45.3693 37.5879 45.6152 37.4856 45.7965 37.3036C45.9778 37.1215 46.0797 36.8746 46.0797 36.6172C46.0797 35.2666 44.9885 34.5398 44.0268 33.8972C42.7622 33.054 41.5679 32.2561 41.5679 30.1457C41.5679 28.3272 42.5895 27.6678 43.8818 26.833C45.1013 26.0467 46.6166 25.0682 46.6166 22.919C46.6166 18.9559 43.6833 17.1918 43.5589 17.1186C43.3379 16.9976 43.0785 16.9678 42.836 17.0356C42.5934 17.1035 42.3868 17.2636 42.2599 17.4819C42.133 17.7003 42.0959 17.9597 42.1565 18.2051C42.2171 18.4505 42.3706 18.6625 42.5843 18.7961C42.605 18.8083 44.683 20.058 44.683 22.919C44.683 23.9596 44.0494 24.4172 42.837 25.2002C41.4854 26.0726 39.6336 27.2679 39.6336 30.1457C39.6336 33.2973 41.6336 34.6304 42.9569 35.5138V35.5144ZM51.751 35.5144C52.3621 35.9221 52.9396 36.3078 52.9396 36.6172C52.9396 36.8746 53.0414 37.1215 53.2228 37.3036C53.4041 37.4856 53.65 37.5879 53.9064 37.5879C54.1628 37.5879 54.4087 37.4856 54.59 37.3036C54.7714 37.1215 54.8732 36.8746 54.8732 36.6172C54.8732 35.2666 53.7826 34.5398 52.821 33.8972C51.5564 33.054 50.3614 32.2561 50.3614 30.1457C50.3614 28.3272 51.383 27.6678 52.6766 26.833C53.8948 26.0467 55.4108 25.0682 55.4108 22.919C55.4108 18.9559 52.4781 17.1918 52.3531 17.1186C52.132 16.9976 51.8727 16.9678 51.6301 17.0356C51.3876 17.1035 51.1809 17.2636 51.054 17.4819C50.9272 17.7003 50.8901 17.9597 50.9507 18.2051C51.0113 18.4505 51.1647 18.6625 51.3785 18.7961C51.3998 18.8083 53.4771 20.058 53.4771 22.919C53.4771 23.9596 52.8442 24.4172 51.6305 25.2002C50.2789 26.0726 48.4278 27.2679 48.4278 30.1457C48.4278 33.2973 50.4278 34.6304 51.751 35.5138V35.5144ZM60.5452 35.5144C61.1562 35.9221 61.7344 36.3078 61.7344 36.6172C61.7344 36.8746 61.8362 37.1215 62.0176 37.3036C62.1989 37.4856 62.4448 37.5879 62.7012 37.5879C62.9576 37.5879 63.2035 37.4856 63.3848 37.3036C63.5662 37.1215 63.668 36.8746 63.668 36.6172C63.668 35.2666 62.5768 34.5398 61.6151 33.8972C60.3505 33.054 59.1562 32.2561 59.1562 30.1457C59.1562 28.3272 60.1778 27.6678 61.4701 26.833C62.689 26.0467 64.2049 25.0682 64.2049 22.919C64.2049 18.9559 61.2716 17.1918 61.1472 17.1186C60.9262 16.9976 60.6668 16.9678 60.4243 17.0356C60.1817 17.1035 59.9751 17.2636 59.8482 17.4819C59.7213 17.7003 59.6843 17.9597 59.7448 18.2051C59.8054 18.4505 59.9589 18.6625 60.1727 18.7961C60.1933 18.8083 62.2713 20.058 62.2713 22.919C62.2713 23.9596 61.6377 24.4172 60.4253 25.2002C59.0737 26.0726 57.2219 27.2679 57.2219 30.1457C57.2219 33.2973 59.222 34.6304 60.5452 35.5138V35.5144Z" fill="#FCA740"/>
</svg>
