<svg width="82" height="101" viewBox="0 0 82 101" fill="none" xmlns="http://www.w3.org/2000/svg">
<path d="M82 41.3182C82 73.4545 41 101 41 101C41 101 0 73.4545 0 41.3182C1.62033e-07 30.3599 4.31963 19.8505 12.0086 12.1018C19.6976 4.35315 30.1261 0 41 0C51.8739 0 62.3024 4.35315 69.9914 12.1018C77.6804 19.8505 82 30.3599 82 41.3182Z" fill="#FCA740"/>
<path d="M41 55C48.732 55 55 48.732 55 41C55 33.268 48.732 27 41 27C33.268 27 27 33.268 27 41C27 48.732 33.268 55 41 55Z" fill="white" stroke="white" stroke-width="2" stroke-linecap="round" stroke-linejoin="round"/>
</svg>
